<?xml version="1.0" encoding="UTF-8" standalone="no"?>
<!DOCTYPE svg PUBLIC "-//W3C//DTD SVG 1.1//EN"
 "http://www.w3.org/Graphics/SVG/1.1/DTD/svg11.dtd">
<!-- Generated by graphviz version 2.40.1 (20161225.0304)
 -->
<!-- Title: dependencies Pages: 1 -->
<svg width="2053pt" height="284pt"
 viewBox="0.00 0.00 2053.00 284.00" xmlns="http://www.w3.org/2000/svg" xmlns:xlink="http://www.w3.org/1999/xlink">
<g id="graph0" class="graph" transform="scale(1 1) rotate(0) translate(4 280)">
<title>dependencies</title>
<polygon fill="#ffffff" stroke="transparent" points="-4,4 -4,-280 2049,-280 2049,4 -4,4"/>
<text text-anchor="start" x="1001.5091" y="-42.4" font-family="sans-serif" font-weight="bold" font-size="14.00" fill="#000000">Legend</text>
<polygon fill="#ffffb3" stroke="transparent" points="788.5,-10 788.5,-30 808.5,-30 808.5,-10 788.5,-10"/>
<text text-anchor="start" x="812.129" y="-15.4" font-family="sans-serif" font-size="14.00" fill="#000000"> &#160;Declarations</text>
<polygon fill="#8dd3c7" stroke="transparent" points="901.5,-10 901.5,-30 921.5,-30 921.5,-10 901.5,-10"/>
<text text-anchor="start" x="925.2251" y="-15.4" font-family="sans-serif" font-size="14.00" fill="#000000"> &#160;Module</text>
<polygon fill="#80b1d3" stroke="transparent" points="987.5,-10 987.5,-30 1007.5,-30 1007.5,-10 987.5,-10"/>
<text text-anchor="start" x="1011.2812" y="-15.4" font-family="sans-serif" font-size="14.00" fill="#000000"> &#160;Bootstrap</text>
<polygon fill="#fdb462" stroke="transparent" points="1084.5,-10 1084.5,-30 1104.5,-30 1104.5,-10 1084.5,-10"/>
<text text-anchor="start" x="1108.1732" y="-15.4" font-family="sans-serif" font-size="14.00" fill="#000000"> &#160;Providers</text>
<polygon fill="#fb8072" stroke="transparent" points="1180.5,-10 1180.5,-30 1200.5,-30 1200.5,-10 1180.5,-10"/>
<text text-anchor="start" x="1204.2258" y="-15.4" font-family="sans-serif" font-size="14.00" fill="#000000"> &#160;Exports</text>
<g id="clust1" class="cluster">
<title>cluster_AppModule</title>
<polygon fill="none" stroke="#000000" stroke-dasharray="1,5" points="8,-70 8,-268 2037,-268 2037,-70 8,-70"/>
</g>
<g id="clust2" class="cluster">
<title>cluster_AppModule_declarations</title>
<polygon fill="none" stroke="#000000" points="1035,-78 1035,-130 2029,-130 2029,-78 1035,-78"/>
</g>
<g id="clust10" class="cluster">
<title>cluster_AppModule_imports</title>
<polygon fill="none" stroke="#000000" points="883,-78 883,-130 1027,-130 1027,-78 883,-78"/>
</g>
<g id="clust12" class="cluster">
<title>cluster_AppModule_bootstrap</title>
<polygon fill="none" stroke="#000000" points="1038,-208 1038,-260 1162,-260 1162,-208 1038,-208"/>
</g>
<g id="clust13" class="cluster">
<title>cluster_AppModule_providers</title>
<polygon fill="none" stroke="#000000" points="16,-78 16,-130 875,-130 875,-78 16,-78"/>
</g>
<!-- AddautorComponent -->
<g id="node1" class="node">
<title>AddautorComponent</title>
<polygon fill="#ffffb3" stroke="#000000" points="2021.205,-122 1886.795,-122 1886.795,-86 2021.205,-86 2021.205,-122"/>
<text text-anchor="middle" x="1954" y="-99.8" font-family="Times,serif" font-size="14.00" fill="#000000">AddautorComponent</text>
</g>
<!-- AppModule -->
<g id="node8" class="node">
<title>AppModule</title>
<polygon fill="#8dd3c7" stroke="#000000" points="1141.6571,-187 1138.6571,-191 1117.6571,-191 1114.6571,-187 1058.3429,-187 1058.3429,-151 1141.6571,-151 1141.6571,-187"/>
<text text-anchor="middle" x="1100" y="-164.8" font-family="Times,serif" font-size="14.00" fill="#000000">AppModule</text>
</g>
<!-- AddautorComponent&#45;&gt;AppModule -->
<g id="edge1" class="edge">
<title>AddautorComponent&#45;&gt;AppModule</title>
<path fill="none" stroke="#000000" d="M1954,-122.0908C1954,-145.1328 1954,-182 1954,-182 1954,-182 1151.7683,-182 1151.7683,-182"/>
<polygon fill="#000000" stroke="#000000" points="1151.7683,-178.5001 1141.7683,-182 1151.7683,-185.5001 1151.7683,-178.5001"/>
</g>
<!-- AddlibroComponent -->
<g id="node2" class="node">
<title>AddlibroComponent</title>
<polygon fill="#ffffb3" stroke="#000000" points="1868.8809,-122 1737.1191,-122 1737.1191,-86 1868.8809,-86 1868.8809,-122"/>
<text text-anchor="middle" x="1803" y="-99.8" font-family="Times,serif" font-size="14.00" fill="#000000">AddlibroComponent</text>
</g>
<!-- AddlibroComponent&#45;&gt;AppModule -->
<g id="edge2" class="edge">
<title>AddlibroComponent&#45;&gt;AppModule</title>
<path fill="none" stroke="#000000" d="M1803,-122.0449C1803,-143.6623 1803,-177 1803,-177 1803,-177 1151.8706,-177 1151.8706,-177"/>
<polygon fill="#000000" stroke="#000000" points="1151.8706,-173.5001 1141.8706,-177 1151.8705,-180.5001 1151.8706,-173.5001"/>
</g>
<!-- AppComponent -->
<g id="node3" class="node">
<title>AppComponent</title>
<polygon fill="#ffffb3" stroke="#000000" points="1718.9399,-122 1613.0601,-122 1613.0601,-86 1718.9399,-86 1718.9399,-122"/>
<text text-anchor="middle" x="1666" y="-99.8" font-family="Times,serif" font-size="14.00" fill="#000000">AppComponent</text>
</g>
<!-- AppComponent&#45;&gt;AppModule -->
<g id="edge3" class="edge">
<title>AppComponent&#45;&gt;AppModule</title>
<path fill="none" stroke="#000000" d="M1666,-122.2228C1666,-142.3652 1666,-172 1666,-172 1666,-172 1152.0796,-172 1152.0796,-172"/>
<polygon fill="#000000" stroke="#000000" points="1152.0796,-168.5001 1142.0796,-172 1152.0795,-175.5001 1152.0796,-168.5001"/>
</g>
<!-- HomeComponent -->
<g id="node4" class="node">
<title>HomeComponent</title>
<polygon fill="#ffffb3" stroke="#000000" points="1595.5451,-122 1480.4549,-122 1480.4549,-86 1595.5451,-86 1595.5451,-122"/>
<text text-anchor="middle" x="1538" y="-99.8" font-family="Times,serif" font-size="14.00" fill="#000000">HomeComponent</text>
</g>
<!-- HomeComponent&#45;&gt;AppModule -->
<g id="edge4" class="edge">
<title>HomeComponent&#45;&gt;AppModule</title>
<path fill="none" stroke="#000000" d="M1538,-122.2222C1538,-140.8285 1538,-167 1538,-167 1538,-167 1151.9973,-167 1151.9973,-167"/>
<polygon fill="#000000" stroke="#000000" points="1151.9973,-163.5001 1141.9973,-167 1151.9972,-170.5001 1151.9973,-163.5001"/>
</g>
<!-- ListarComponent -->
<g id="node5" class="node">
<title>ListarComponent</title>
<polygon fill="#ffffb3" stroke="#000000" points="1461.986,-122 1348.014,-122 1348.014,-86 1461.986,-86 1461.986,-122"/>
<text text-anchor="middle" x="1405" y="-99.8" font-family="Times,serif" font-size="14.00" fill="#000000">ListarComponent</text>
</g>
<!-- ListarComponent&#45;&gt;AppModule -->
<g id="edge5" class="edge">
<title>ListarComponent&#45;&gt;AppModule</title>
<path fill="none" stroke="#000000" d="M1405,-122.0336C1405,-139.0597 1405,-162 1405,-162 1405,-162 1151.7694,-162 1151.7694,-162"/>
<polygon fill="#000000" stroke="#000000" points="1151.7695,-158.5001 1141.7694,-162 1151.7694,-165.5001 1151.7695,-158.5001"/>
</g>
<!-- ListarautoresComponent -->
<g id="node6" class="node">
<title>ListarautoresComponent</title>
<polygon fill="#ffffb3" stroke="#000000" points="1330.4115,-122 1175.5885,-122 1175.5885,-86 1330.4115,-86 1330.4115,-122"/>
<text text-anchor="middle" x="1253" y="-99.8" font-family="Times,serif" font-size="14.00" fill="#000000">ListarautoresComponent</text>
</g>
<!-- ListarautoresComponent&#45;&gt;AppModule -->
<g id="edge6" class="edge">
<title>ListarautoresComponent&#45;&gt;AppModule</title>
<path fill="none" stroke="#000000" d="M1253,-122.2396C1253,-137.5706 1253,-157 1253,-157 1253,-157 1151.8079,-157 1151.8079,-157"/>
<polygon fill="#000000" stroke="#000000" points="1151.808,-153.5001 1141.8079,-157 1151.8079,-160.5001 1151.808,-153.5001"/>
</g>
<!-- LoginComponent -->
<g id="node7" class="node">
<title>LoginComponent</title>
<polygon fill="#ffffb3" stroke="#000000" points="1157.2758,-122 1042.7242,-122 1042.7242,-86 1157.2758,-86 1157.2758,-122"/>
<text text-anchor="middle" x="1100" y="-99.8" font-family="Times,serif" font-size="14.00" fill="#000000">LoginComponent</text>
</g>
<!-- LoginComponent&#45;&gt;AppModule -->
<g id="edge7" class="edge">
<title>LoginComponent&#45;&gt;AppModule</title>
<path fill="none" stroke="#000000" d="M1100,-122.1061C1100,-122.1061 1100,-140.991 1100,-140.991"/>
<polygon fill="#000000" stroke="#000000" points="1096.5001,-140.9909 1100,-150.991 1103.5001,-140.991 1096.5001,-140.9909"/>
</g>
<!-- AppComponent  -->
<g id="node10" class="node">
<title>AppComponent </title>
<polygon fill="#80b1d3" stroke="#000000" points="1154.439,-252 1045.561,-252 1045.561,-216 1154.439,-216 1154.439,-252"/>
<text text-anchor="middle" x="1100" y="-229.8" font-family="Times,serif" font-size="14.00" fill="#000000">AppComponent </text>
</g>
<!-- AppModule&#45;&gt;AppComponent  -->
<g id="edge9" class="edge">
<title>AppModule&#45;&gt;AppComponent </title>
<path fill="none" stroke="#000000" stroke-dasharray="1,5" d="M1100,-187.1061C1100,-187.1061 1100,-205.991 1100,-205.991"/>
<polygon fill="#000000" stroke="#000000" points="1096.5001,-205.9909 1100,-215.991 1103.5001,-205.991 1096.5001,-205.9909"/>
</g>
<!-- AppRoutingModule -->
<g id="node9" class="node">
<title>AppRoutingModule</title>
<polygon fill="#8dd3c7" stroke="#000000" points="1019.2744,-122 1016.2744,-126 995.2744,-126 992.2744,-122 890.7256,-122 890.7256,-86 1019.2744,-86 1019.2744,-122"/>
<text text-anchor="middle" x="955" y="-99.8" font-family="Times,serif" font-size="14.00" fill="#000000">AppRoutingModule</text>
</g>
<!-- AppRoutingModule&#45;&gt;AppModule -->
<g id="edge8" class="edge">
<title>AppRoutingModule&#45;&gt;AppModule</title>
<path fill="none" stroke="#000000" d="M955,-122.2396C955,-137.5706 955,-157 955,-157 955,-157 1048.06,-157 1048.06,-157"/>
<polygon fill="#000000" stroke="#000000" points="1048.06,-160.5001 1058.06,-157 1048.06,-153.5001 1048.06,-160.5001"/>
</g>
<!-- AuthInterceptorService -->
<g id="node11" class="node">
<title>AuthInterceptorService</title>
<ellipse fill="#fdb462" stroke="#000000" cx="765" cy="-104" rx="101.8225" ry="18"/>
<text text-anchor="middle" x="765" y="-99.8" font-family="Times,serif" font-size="14.00" fill="#000000">AuthInterceptorService</text>
</g>
<!-- AuthInterceptorService&#45;&gt;AppModule -->
<g id="edge10" class="edge">
<title>AuthInterceptorService&#45;&gt;AppModule</title>
<path fill="none" stroke="#000000" d="M765,-122.0336C765,-139.0597 765,-162 765,-162 765,-162 1048.2494,-162 1048.2494,-162"/>
<polygon fill="#000000" stroke="#000000" points="1048.2494,-165.5001 1058.2494,-162 1048.2493,-158.5001 1048.2494,-165.5001"/>
</g>
<!-- AuthenticationService -->
<g id="node12" class="node">
<title>AuthenticationService</title>
<ellipse fill="#fdb462" stroke="#000000" cx="548" cy="-104" rx="97.2683" ry="18"/>
<text text-anchor="middle" x="548" y="-99.8" font-family="Times,serif" font-size="14.00" fill="#000000">AuthenticationService</text>
</g>
<!-- AuthenticationService&#45;&gt;AppModule -->
<g id="edge11" class="edge">
<title>AuthenticationService&#45;&gt;AppModule</title>
<path fill="none" stroke="#000000" d="M548,-122.2222C548,-140.8285 548,-167 548,-167 548,-167 1048.0572,-167 1048.0572,-167"/>
<polygon fill="#000000" stroke="#000000" points="1048.0572,-170.5001 1058.0572,-167 1048.0572,-163.5001 1048.0572,-170.5001"/>
</g>
<!-- AuthorService -->
<g id="node13" class="node">
<title>AuthorService</title>
<ellipse fill="#fdb462" stroke="#000000" cx="365" cy="-104" rx="67.1946" ry="18"/>
<text text-anchor="middle" x="365" y="-99.8" font-family="Times,serif" font-size="14.00" fill="#000000">AuthorService</text>
</g>
<!-- AuthorService&#45;&gt;AppModule -->
<g id="edge12" class="edge">
<title>AuthorService&#45;&gt;AppModule</title>
<path fill="none" stroke="#000000" d="M365,-122.2228C365,-142.3652 365,-172 365,-172 365,-172 1048.1107,-172 1048.1107,-172"/>
<polygon fill="#000000" stroke="#000000" points="1048.1107,-175.5001 1058.1107,-172 1048.1106,-168.5001 1048.1107,-175.5001"/>
</g>
<!-- BookService -->
<g id="node14" class="node">
<title>BookService</title>
<ellipse fill="#fdb462" stroke="#000000" cx="219" cy="-104" rx="60.8352" ry="18"/>
<text text-anchor="middle" x="219" y="-99.8" font-family="Times,serif" font-size="14.00" fill="#000000">BookService</text>
</g>
<!-- BookService&#45;&gt;AppModule -->
<g id="edge13" class="edge">
<title>BookService&#45;&gt;AppModule</title>
<path fill="none" stroke="#000000" d="M219,-122.0449C219,-143.6623 219,-177 219,-177 219,-177 1048.1002,-177 1048.1002,-177"/>
<polygon fill="#000000" stroke="#000000" points="1048.1003,-180.5001 1058.1002,-177 1048.1002,-173.5001 1048.1003,-180.5001"/>
</g>
<!-- UserService -->
<g id="node15" class="node">
<title>UserService</title>
<ellipse fill="#fdb462" stroke="#000000" cx="82" cy="-104" rx="58.4415" ry="18"/>
<text text-anchor="middle" x="82" y="-99.8" font-family="Times,serif" font-size="14.00" fill="#000000">UserService</text>
</g>
<!-- UserService&#45;&gt;AppModule -->
<g id="edge14" class="edge">
<title>UserService&#45;&gt;AppModule</title>
<path fill="none" stroke="#000000" d="M82,-122.0908C82,-145.1328 82,-182 82,-182 82,-182 1048.1953,-182 1048.1953,-182"/>
<polygon fill="#000000" stroke="#000000" points="1048.1954,-185.5001 1058.1953,-182 1048.1953,-178.5001 1048.1954,-185.5001"/>
</g>
</g>
</svg>
