<?xml version="1.0" encoding="UTF-8" standalone="no"?>
<!DOCTYPE svg PUBLIC "-//W3C//DTD SVG 1.1//EN"
 "http://www.w3.org/Graphics/SVG/1.1/DTD/svg11.dtd">
<!-- Generated by graphviz version 2.40.1 (20161225.0304)
 -->
<!-- Title: dependencies Pages: 1 -->
<svg width="1919pt" height="284pt"
 viewBox="0.00 0.00 1919.00 284.00" xmlns="http://www.w3.org/2000/svg" xmlns:xlink="http://www.w3.org/1999/xlink">
<g id="graph0" class="graph" transform="scale(1 1) rotate(0) translate(4 280)">
<title>dependencies</title>
<polygon fill="#ffffff" stroke="transparent" points="-4,4 -4,-280 1915,-280 1915,4 -4,4"/>
<text text-anchor="start" x="934.5091" y="-42.4" font-family="sans-serif" font-weight="bold" font-size="14.00" fill="#000000">Legend</text>
<polygon fill="#ffffb3" stroke="transparent" points="721.5,-10 721.5,-30 741.5,-30 741.5,-10 721.5,-10"/>
<text text-anchor="start" x="745.129" y="-15.4" font-family="sans-serif" font-size="14.00" fill="#000000"> &#160;Declarations</text>
<polygon fill="#8dd3c7" stroke="transparent" points="834.5,-10 834.5,-30 854.5,-30 854.5,-10 834.5,-10"/>
<text text-anchor="start" x="858.2251" y="-15.4" font-family="sans-serif" font-size="14.00" fill="#000000"> &#160;Module</text>
<polygon fill="#80b1d3" stroke="transparent" points="920.5,-10 920.5,-30 940.5,-30 940.5,-10 920.5,-10"/>
<text text-anchor="start" x="944.2812" y="-15.4" font-family="sans-serif" font-size="14.00" fill="#000000"> &#160;Bootstrap</text>
<polygon fill="#fdb462" stroke="transparent" points="1017.5,-10 1017.5,-30 1037.5,-30 1037.5,-10 1017.5,-10"/>
<text text-anchor="start" x="1041.1732" y="-15.4" font-family="sans-serif" font-size="14.00" fill="#000000"> &#160;Providers</text>
<polygon fill="#fb8072" stroke="transparent" points="1113.5,-10 1113.5,-30 1133.5,-30 1133.5,-10 1113.5,-10"/>
<text text-anchor="start" x="1137.2258" y="-15.4" font-family="sans-serif" font-size="14.00" fill="#000000"> &#160;Exports</text>
<g id="clust1" class="cluster">
<title>cluster_AppModule</title>
<polygon fill="none" stroke="#000000" stroke-dasharray="1,5" points="8,-70 8,-268 1903,-268 1903,-70 8,-70"/>
</g>
<g id="clust2" class="cluster">
<title>cluster_AppModule_declarations</title>
<polygon fill="none" stroke="#000000" points="901,-78 901,-130 1895,-130 1895,-78 901,-78"/>
</g>
<g id="clust10" class="cluster">
<title>cluster_AppModule_imports</title>
<polygon fill="none" stroke="#000000" points="749,-78 749,-130 893,-130 893,-78 749,-78"/>
</g>
<g id="clust12" class="cluster">
<title>cluster_AppModule_bootstrap</title>
<polygon fill="none" stroke="#000000" points="980,-208 980,-260 1104,-260 1104,-208 980,-208"/>
</g>
<g id="clust13" class="cluster">
<title>cluster_AppModule_providers</title>
<polygon fill="none" stroke="#000000" points="16,-78 16,-130 741,-130 741,-78 16,-78"/>
</g>
<!-- AddautorComponent -->
<g id="node1" class="node">
<title>AddautorComponent</title>
<polygon fill="#ffffb3" stroke="#000000" points="1887.205,-122 1752.795,-122 1752.795,-86 1887.205,-86 1887.205,-122"/>
<text text-anchor="middle" x="1820" y="-99.8" font-family="Times,serif" font-size="14.00" fill="#000000">AddautorComponent</text>
</g>
<!-- AppModule -->
<g id="node8" class="node">
<title>AppModule</title>
<polygon fill="#8dd3c7" stroke="#000000" points="1083.6571,-187 1080.6571,-191 1059.6571,-191 1056.6571,-187 1000.3429,-187 1000.3429,-151 1083.6571,-151 1083.6571,-187"/>
<text text-anchor="middle" x="1042" y="-164.8" font-family="Times,serif" font-size="14.00" fill="#000000">AppModule</text>
</g>
<!-- AddautorComponent&#45;&gt;AppModule -->
<g id="edge1" class="edge">
<title>AddautorComponent&#45;&gt;AppModule</title>
<path fill="none" stroke="#000000" d="M1820,-122.2479C1820,-145.0179 1820,-181 1820,-181 1820,-181 1093.8287,-181 1093.8287,-181"/>
<polygon fill="#000000" stroke="#000000" points="1093.8287,-177.5001 1083.8287,-181 1093.8286,-184.5001 1093.8287,-177.5001"/>
</g>
<!-- AddlibroComponent -->
<g id="node2" class="node">
<title>AddlibroComponent</title>
<polygon fill="#ffffb3" stroke="#000000" points="1734.8809,-122 1603.1191,-122 1603.1191,-86 1734.8809,-86 1734.8809,-122"/>
<text text-anchor="middle" x="1669" y="-99.8" font-family="Times,serif" font-size="14.00" fill="#000000">AddlibroComponent</text>
</g>
<!-- AddlibroComponent&#45;&gt;AppModule -->
<g id="edge2" class="edge">
<title>AddlibroComponent&#45;&gt;AppModule</title>
<path fill="none" stroke="#000000" d="M1669,-122.2843C1669,-143.3211 1669,-175 1669,-175 1669,-175 1094.1128,-175 1094.1128,-175"/>
<polygon fill="#000000" stroke="#000000" points="1094.1129,-171.5001 1084.1128,-175 1094.1128,-178.5001 1094.1129,-171.5001"/>
</g>
<!-- AppComponent -->
<g id="node3" class="node">
<title>AppComponent</title>
<polygon fill="#ffffb3" stroke="#000000" points="1584.9399,-122 1479.0601,-122 1479.0601,-86 1584.9399,-86 1584.9399,-122"/>
<text text-anchor="middle" x="1532" y="-99.8" font-family="Times,serif" font-size="14.00" fill="#000000">AppComponent</text>
</g>
<!-- AppComponent&#45;&gt;AppModule -->
<g id="edge3" class="edge">
<title>AppComponent&#45;&gt;AppModule</title>
<path fill="none" stroke="#000000" d="M1532,-122.1061C1532,-141.3391 1532,-169 1532,-169 1532,-169 1093.7771,-169 1093.7771,-169"/>
<polygon fill="#000000" stroke="#000000" points="1093.7772,-165.5001 1083.7771,-169 1093.7771,-172.5001 1093.7772,-165.5001"/>
</g>
<!-- HomeComponent -->
<g id="node4" class="node">
<title>HomeComponent</title>
<polygon fill="#ffffb3" stroke="#000000" points="1461.5451,-122 1346.4549,-122 1346.4549,-86 1461.5451,-86 1461.5451,-122"/>
<text text-anchor="middle" x="1404" y="-99.8" font-family="Times,serif" font-size="14.00" fill="#000000">HomeComponent</text>
</g>
<!-- HomeComponent&#45;&gt;AppModule -->
<g id="edge4" class="edge">
<title>HomeComponent&#45;&gt;AppModule</title>
<path fill="none" stroke="#000000" d="M1404,-122.0225C1404,-139.3734 1404,-163 1404,-163 1404,-163 1093.8796,-163 1093.8796,-163"/>
<polygon fill="#000000" stroke="#000000" points="1093.8797,-159.5001 1083.8796,-163 1093.8796,-166.5001 1093.8797,-159.5001"/>
</g>
<!-- ListarComponent -->
<g id="node5" class="node">
<title>ListarComponent</title>
<polygon fill="#ffffb3" stroke="#000000" points="1327.986,-122 1214.014,-122 1214.014,-86 1327.986,-86 1327.986,-122"/>
<text text-anchor="middle" x="1271" y="-99.8" font-family="Times,serif" font-size="14.00" fill="#000000">ListarComponent</text>
</g>
<!-- ListarComponent&#45;&gt;AppModule -->
<g id="edge5" class="edge">
<title>ListarComponent&#45;&gt;AppModule</title>
<path fill="none" stroke="#000000" d="M1271,-122.2396C1271,-137.5706 1271,-157 1271,-157 1271,-157 1093.7359,-157 1093.7359,-157"/>
<polygon fill="#000000" stroke="#000000" points="1093.7359,-153.5001 1083.7359,-157 1093.7358,-160.5001 1093.7359,-153.5001"/>
</g>
<!-- ListarautoresComponent -->
<g id="node6" class="node">
<title>ListarautoresComponent</title>
<polygon fill="#ffffb3" stroke="#000000" points="1196.4115,-122 1041.5885,-122 1041.5885,-86 1196.4115,-86 1196.4115,-122"/>
<text text-anchor="middle" x="1119" y="-99.8" font-family="Times,serif" font-size="14.00" fill="#000000">ListarautoresComponent</text>
</g>
<!-- ListarautoresComponent&#45;&gt;AppModule -->
<g id="edge6" class="edge">
<title>ListarautoresComponent&#45;&gt;AppModule</title>
<path fill="none" stroke="#000000" d="M1062.8114,-122.1061C1062.8114,-122.1061 1062.8114,-140.991 1062.8114,-140.991"/>
<polygon fill="#000000" stroke="#000000" points="1059.3114,-140.9909 1062.8114,-150.991 1066.3114,-140.991 1059.3114,-140.9909"/>
</g>
<!-- LoginComponent -->
<g id="node7" class="node">
<title>LoginComponent</title>
<polygon fill="#ffffb3" stroke="#000000" points="1023.2758,-122 908.7242,-122 908.7242,-86 1023.2758,-86 1023.2758,-122"/>
<text text-anchor="middle" x="966" y="-99.8" font-family="Times,serif" font-size="14.00" fill="#000000">LoginComponent</text>
</g>
<!-- LoginComponent&#45;&gt;AppModule -->
<g id="edge7" class="edge">
<title>LoginComponent&#45;&gt;AppModule</title>
<path fill="none" stroke="#000000" d="M1011.7798,-122.1061C1011.7798,-122.1061 1011.7798,-140.991 1011.7798,-140.991"/>
<polygon fill="#000000" stroke="#000000" points="1008.2799,-140.9909 1011.7798,-150.991 1015.2799,-140.991 1008.2799,-140.9909"/>
</g>
<!-- AppComponent  -->
<g id="node10" class="node">
<title>AppComponent </title>
<polygon fill="#80b1d3" stroke="#000000" points="1096.439,-252 987.561,-252 987.561,-216 1096.439,-216 1096.439,-252"/>
<text text-anchor="middle" x="1042" y="-229.8" font-family="Times,serif" font-size="14.00" fill="#000000">AppComponent </text>
</g>
<!-- AppModule&#45;&gt;AppComponent  -->
<g id="edge9" class="edge">
<title>AppModule&#45;&gt;AppComponent </title>
<path fill="none" stroke="#000000" stroke-dasharray="1,5" d="M1042,-187.1061C1042,-187.1061 1042,-205.991 1042,-205.991"/>
<polygon fill="#000000" stroke="#000000" points="1038.5001,-205.9909 1042,-215.991 1045.5001,-205.991 1038.5001,-205.9909"/>
</g>
<!-- AppRoutingModule -->
<g id="node9" class="node">
<title>AppRoutingModule</title>
<polygon fill="#8dd3c7" stroke="#000000" points="885.2744,-122 882.2744,-126 861.2744,-126 858.2744,-122 756.7256,-122 756.7256,-86 885.2744,-86 885.2744,-122"/>
<text text-anchor="middle" x="821" y="-99.8" font-family="Times,serif" font-size="14.00" fill="#000000">AppRoutingModule</text>
</g>
<!-- AppRoutingModule&#45;&gt;AppModule -->
<g id="edge8" class="edge">
<title>AppRoutingModule&#45;&gt;AppModule</title>
<path fill="none" stroke="#000000" d="M821,-122.2396C821,-137.5706 821,-157 821,-157 821,-157 990.1718,-157 990.1718,-157"/>
<polygon fill="#000000" stroke="#000000" points="990.1718,-160.5001 1000.1718,-157 990.1717,-153.5001 990.1718,-160.5001"/>
</g>
<!-- AuthInterceptorService -->
<g id="node11" class="node">
<title>AuthInterceptorService</title>
<ellipse fill="#fdb462" stroke="#000000" cx="631" cy="-104" rx="101.8225" ry="18"/>
<text text-anchor="middle" x="631" y="-99.8" font-family="Times,serif" font-size="14.00" fill="#000000">AuthInterceptorService</text>
</g>
<!-- AuthInterceptorService&#45;&gt;AppModule -->
<g id="edge10" class="edge">
<title>AuthInterceptorService&#45;&gt;AppModule</title>
<path fill="none" stroke="#000000" d="M631,-122.0225C631,-139.3734 631,-163 631,-163 631,-163 990.3293,-163 990.3293,-163"/>
<polygon fill="#000000" stroke="#000000" points="990.3294,-166.5001 1000.3293,-163 990.3293,-159.5001 990.3294,-166.5001"/>
</g>
<!-- AuthenticationService -->
<g id="node12" class="node">
<title>AuthenticationService</title>
<ellipse fill="#fdb462" stroke="#000000" cx="414" cy="-104" rx="97.2683" ry="18"/>
<text text-anchor="middle" x="414" y="-99.8" font-family="Times,serif" font-size="14.00" fill="#000000">AuthenticationService</text>
</g>
<!-- AuthenticationService&#45;&gt;AppModule -->
<g id="edge11" class="edge">
<title>AuthenticationService&#45;&gt;AppModule</title>
<path fill="none" stroke="#000000" d="M414,-122.1061C414,-141.3391 414,-169 414,-169 414,-169 990.3088,-169 990.3088,-169"/>
<polygon fill="#000000" stroke="#000000" points="990.3089,-172.5001 1000.3088,-169 990.3088,-165.5001 990.3089,-172.5001"/>
</g>
<!-- AuthorService -->
<g id="node13" class="node">
<title>AuthorService</title>
<ellipse fill="#fdb462" stroke="#000000" cx="231" cy="-104" rx="67.1946" ry="18"/>
<text text-anchor="middle" x="231" y="-99.8" font-family="Times,serif" font-size="14.00" fill="#000000">AuthorService</text>
</g>
<!-- AuthorService&#45;&gt;AppModule -->
<g id="edge12" class="edge">
<title>AuthorService&#45;&gt;AppModule</title>
<path fill="none" stroke="#000000" d="M231,-122.2843C231,-143.3211 231,-175 231,-175 231,-175 990.1049,-175 990.1049,-175"/>
<polygon fill="#000000" stroke="#000000" points="990.1049,-178.5001 1000.1049,-175 990.1048,-171.5001 990.1049,-178.5001"/>
</g>
<!-- BookService -->
<g id="node14" class="node">
<title>BookService</title>
<ellipse fill="#fdb462" stroke="#000000" cx="85" cy="-104" rx="60.8352" ry="18"/>
<text text-anchor="middle" x="85" y="-99.8" font-family="Times,serif" font-size="14.00" fill="#000000">BookService</text>
</g>
<!-- BookService&#45;&gt;AppModule -->
<g id="edge13" class="edge">
<title>BookService&#45;&gt;AppModule</title>
<path fill="none" stroke="#000000" d="M85,-122.2479C85,-145.0179 85,-181 85,-181 85,-181 990.2635,-181 990.2635,-181"/>
<polygon fill="#000000" stroke="#000000" points="990.2636,-184.5001 1000.2635,-181 990.2635,-177.5001 990.2636,-184.5001"/>
</g>
</g>
</svg>
