<?xml version="1.0" encoding="UTF-8" standalone="no"?>
<!DOCTYPE svg PUBLIC "-//W3C//DTD SVG 1.1//EN"
 "http://www.w3.org/Graphics/SVG/1.1/DTD/svg11.dtd">
<!-- Generated by graphviz version 2.40.1 (20161225.0304)
 -->
<!-- Title: dependencies Pages: 1 -->
<svg width="2389pt" height="284pt"
 viewBox="0.00 0.00 2389.00 284.00" xmlns="http://www.w3.org/2000/svg" xmlns:xlink="http://www.w3.org/1999/xlink">
<g id="graph0" class="graph" transform="scale(1 1) rotate(0) translate(4 280)">
<title>dependencies</title>
<polygon fill="#ffffff" stroke="transparent" points="-4,4 -4,-280 2385,-280 2385,4 -4,4"/>
<text text-anchor="start" x="1169.5091" y="-42.4" font-family="sans-serif" font-weight="bold" font-size="14.00" fill="#000000">Legend</text>
<polygon fill="#ffffb3" stroke="transparent" points="956.5,-10 956.5,-30 976.5,-30 976.5,-10 956.5,-10"/>
<text text-anchor="start" x="980.129" y="-15.4" font-family="sans-serif" font-size="14.00" fill="#000000"> &#160;Declarations</text>
<polygon fill="#8dd3c7" stroke="transparent" points="1069.5,-10 1069.5,-30 1089.5,-30 1089.5,-10 1069.5,-10"/>
<text text-anchor="start" x="1093.2251" y="-15.4" font-family="sans-serif" font-size="14.00" fill="#000000"> &#160;Module</text>
<polygon fill="#80b1d3" stroke="transparent" points="1155.5,-10 1155.5,-30 1175.5,-30 1175.5,-10 1155.5,-10"/>
<text text-anchor="start" x="1179.2812" y="-15.4" font-family="sans-serif" font-size="14.00" fill="#000000"> &#160;Bootstrap</text>
<polygon fill="#fdb462" stroke="transparent" points="1252.5,-10 1252.5,-30 1272.5,-30 1272.5,-10 1252.5,-10"/>
<text text-anchor="start" x="1276.1732" y="-15.4" font-family="sans-serif" font-size="14.00" fill="#000000"> &#160;Providers</text>
<polygon fill="#fb8072" stroke="transparent" points="1348.5,-10 1348.5,-30 1368.5,-30 1368.5,-10 1348.5,-10"/>
<text text-anchor="start" x="1372.2258" y="-15.4" font-family="sans-serif" font-size="14.00" fill="#000000"> &#160;Exports</text>
<g id="clust1" class="cluster">
<title>cluster_AppModule</title>
<polygon fill="none" stroke="#000000" stroke-dasharray="1,5" points="8,-70 8,-268 2373,-268 2373,-70 8,-70"/>
</g>
<g id="clust2" class="cluster">
<title>cluster_AppModule_declarations</title>
<polygon fill="none" stroke="#000000" points="1371,-78 1371,-130 2365,-130 2365,-78 1371,-78"/>
</g>
<g id="clust10" class="cluster">
<title>cluster_AppModule_imports</title>
<polygon fill="none" stroke="#000000" points="1219,-78 1219,-130 1363,-130 1363,-78 1219,-78"/>
</g>
<g id="clust12" class="cluster">
<title>cluster_AppModule_bootstrap</title>
<polygon fill="none" stroke="#000000" points="1229,-208 1229,-260 1353,-260 1353,-208 1229,-208"/>
</g>
<g id="clust13" class="cluster">
<title>cluster_AppModule_providers</title>
<polygon fill="none" stroke="#000000" points="16,-78 16,-130 1211,-130 1211,-78 16,-78"/>
</g>
<!-- AddautorComponent -->
<g id="node1" class="node">
<title>AddautorComponent</title>
<polygon fill="#ffffb3" stroke="#000000" points="2357.205,-122 2222.795,-122 2222.795,-86 2357.205,-86 2357.205,-122"/>
<text text-anchor="middle" x="2290" y="-99.8" font-family="Times,serif" font-size="14.00" fill="#000000">AddautorComponent</text>
</g>
<!-- AppModule -->
<g id="node8" class="node">
<title>AppModule</title>
<polygon fill="#8dd3c7" stroke="#000000" points="1332.6571,-187 1329.6571,-191 1308.6571,-191 1305.6571,-187 1249.3429,-187 1249.3429,-151 1332.6571,-151 1332.6571,-187"/>
<text text-anchor="middle" x="1291" y="-164.8" font-family="Times,serif" font-size="14.00" fill="#000000">AppModule</text>
</g>
<!-- AddautorComponent&#45;&gt;AppModule -->
<g id="edge1" class="edge">
<title>AddautorComponent&#45;&gt;AppModule</title>
<path fill="none" stroke="#000000" d="M2290,-122.3228C2290,-145.6602 2290,-183 2290,-183 2290,-183 1342.9703,-183 1342.9703,-183"/>
<polygon fill="#000000" stroke="#000000" points="1342.9703,-179.5001 1332.9703,-183 1342.9702,-186.5001 1342.9703,-179.5001"/>
</g>
<!-- AddlibroComponent -->
<g id="node2" class="node">
<title>AddlibroComponent</title>
<polygon fill="#ffffb3" stroke="#000000" points="2204.8809,-122 2073.1191,-122 2073.1191,-86 2204.8809,-86 2204.8809,-122"/>
<text text-anchor="middle" x="2139" y="-99.8" font-family="Times,serif" font-size="14.00" fill="#000000">AddlibroComponent</text>
</g>
<!-- AddlibroComponent&#45;&gt;AppModule -->
<g id="edge2" class="edge">
<title>AddlibroComponent&#45;&gt;AppModule</title>
<path fill="none" stroke="#000000" d="M2139,-122.2921C2139,-144.2057 2139,-178 2139,-178 2139,-178 1342.7632,-178 1342.7632,-178"/>
<polygon fill="#000000" stroke="#000000" points="1342.7632,-174.5001 1332.7632,-178 1342.7632,-181.5001 1342.7632,-174.5001"/>
</g>
<!-- AppComponent -->
<g id="node3" class="node">
<title>AppComponent</title>
<polygon fill="#ffffb3" stroke="#000000" points="2054.9399,-122 1949.0601,-122 1949.0601,-86 2054.9399,-86 2054.9399,-122"/>
<text text-anchor="middle" x="2002" y="-99.8" font-family="Times,serif" font-size="14.00" fill="#000000">AppComponent</text>
</g>
<!-- AppComponent&#45;&gt;AppModule -->
<g id="edge3" class="edge">
<title>AppComponent&#45;&gt;AppModule</title>
<path fill="none" stroke="#000000" d="M2002,-122.0267C2002,-142.7672 2002,-174 2002,-174 2002,-174 1342.8219,-174 1342.8219,-174"/>
<polygon fill="#000000" stroke="#000000" points="1342.8219,-170.5001 1332.8219,-174 1342.8218,-177.5001 1342.8219,-170.5001"/>
</g>
<!-- HomeComponent -->
<g id="node4" class="node">
<title>HomeComponent</title>
<polygon fill="#ffffb3" stroke="#000000" points="1931.5451,-122 1816.4549,-122 1816.4549,-86 1931.5451,-86 1931.5451,-122"/>
<text text-anchor="middle" x="1874" y="-99.8" font-family="Times,serif" font-size="14.00" fill="#000000">HomeComponent</text>
</g>
<!-- HomeComponent&#45;&gt;AppModule -->
<g id="edge4" class="edge">
<title>HomeComponent&#45;&gt;AppModule</title>
<path fill="none" stroke="#000000" d="M1874,-122.1061C1874,-141.3391 1874,-169 1874,-169 1874,-169 1342.9279,-169 1342.9279,-169"/>
<polygon fill="#000000" stroke="#000000" points="1342.928,-165.5001 1332.9279,-169 1342.9279,-172.5001 1342.928,-165.5001"/>
</g>
<!-- ListarComponent -->
<g id="node5" class="node">
<title>ListarComponent</title>
<polygon fill="#ffffb3" stroke="#000000" points="1797.986,-122 1684.014,-122 1684.014,-86 1797.986,-86 1797.986,-122"/>
<text text-anchor="middle" x="1741" y="-99.8" font-family="Times,serif" font-size="14.00" fill="#000000">ListarComponent</text>
</g>
<!-- ListarComponent&#45;&gt;AppModule -->
<g id="edge5" class="edge">
<title>ListarComponent&#45;&gt;AppModule</title>
<path fill="none" stroke="#000000" d="M1741,-122.302C1741,-140.2699 1741,-165 1741,-165 1741,-165 1342.9308,-165 1342.9308,-165"/>
<polygon fill="#000000" stroke="#000000" points="1342.9308,-161.5001 1332.9308,-165 1342.9308,-168.5001 1342.9308,-161.5001"/>
</g>
<!-- ListarautoresComponent -->
<g id="node6" class="node">
<title>ListarautoresComponent</title>
<polygon fill="#ffffb3" stroke="#000000" points="1666.4115,-122 1511.5885,-122 1511.5885,-86 1666.4115,-86 1666.4115,-122"/>
<text text-anchor="middle" x="1589" y="-99.8" font-family="Times,serif" font-size="14.00" fill="#000000">ListarautoresComponent</text>
</g>
<!-- ListarautoresComponent&#45;&gt;AppModule -->
<g id="edge6" class="edge">
<title>ListarautoresComponent&#45;&gt;AppModule</title>
<path fill="none" stroke="#000000" d="M1589,-122.027C1589,-138.3976 1589,-160 1589,-160 1589,-160 1342.7494,-160 1342.7494,-160"/>
<polygon fill="#000000" stroke="#000000" points="1342.7494,-156.5001 1332.7494,-160 1342.7494,-163.5001 1342.7494,-156.5001"/>
</g>
<!-- LoginComponent -->
<g id="node7" class="node">
<title>LoginComponent</title>
<polygon fill="#ffffb3" stroke="#000000" points="1493.2758,-122 1378.7242,-122 1378.7242,-86 1493.2758,-86 1493.2758,-122"/>
<text text-anchor="middle" x="1436" y="-99.8" font-family="Times,serif" font-size="14.00" fill="#000000">LoginComponent</text>
</g>
<!-- LoginComponent&#45;&gt;AppModule -->
<g id="edge7" class="edge">
<title>LoginComponent&#45;&gt;AppModule</title>
<path fill="none" stroke="#000000" d="M1436,-122.1871C1436,-137.1824 1436,-156 1436,-156 1436,-156 1342.94,-156 1342.94,-156"/>
<polygon fill="#000000" stroke="#000000" points="1342.94,-152.5001 1332.94,-156 1342.94,-159.5001 1342.94,-152.5001"/>
</g>
<!-- AppComponent  -->
<g id="node10" class="node">
<title>AppComponent </title>
<polygon fill="#80b1d3" stroke="#000000" points="1345.439,-252 1236.561,-252 1236.561,-216 1345.439,-216 1345.439,-252"/>
<text text-anchor="middle" x="1291" y="-229.8" font-family="Times,serif" font-size="14.00" fill="#000000">AppComponent </text>
</g>
<!-- AppModule&#45;&gt;AppComponent  -->
<g id="edge9" class="edge">
<title>AppModule&#45;&gt;AppComponent </title>
<path fill="none" stroke="#000000" stroke-dasharray="1,5" d="M1291,-187.1061C1291,-187.1061 1291,-205.991 1291,-205.991"/>
<polygon fill="#000000" stroke="#000000" points="1287.5001,-205.9909 1291,-215.991 1294.5001,-205.991 1287.5001,-205.9909"/>
</g>
<!-- AppRoutingModule -->
<g id="node9" class="node">
<title>AppRoutingModule</title>
<polygon fill="#8dd3c7" stroke="#000000" points="1355.2744,-122 1352.2744,-126 1331.2744,-126 1328.2744,-122 1226.7256,-122 1226.7256,-86 1355.2744,-86 1355.2744,-122"/>
<text text-anchor="middle" x="1291" y="-99.8" font-family="Times,serif" font-size="14.00" fill="#000000">AppRoutingModule</text>
</g>
<!-- AppRoutingModule&#45;&gt;AppModule -->
<g id="edge8" class="edge">
<title>AppRoutingModule&#45;&gt;AppModule</title>
<path fill="none" stroke="#000000" d="M1291,-122.1061C1291,-122.1061 1291,-140.991 1291,-140.991"/>
<polygon fill="#000000" stroke="#000000" points="1287.5001,-140.9909 1291,-150.991 1294.5001,-140.991 1287.5001,-140.9909"/>
</g>
<!-- AuthInterceptorService -->
<g id="node11" class="node">
<title>AuthInterceptorService</title>
<ellipse fill="#fdb462" stroke="#000000" cx="1101" cy="-104" rx="101.8225" ry="18"/>
<text text-anchor="middle" x="1101" y="-99.8" font-family="Times,serif" font-size="14.00" fill="#000000">AuthInterceptorService</text>
</g>
<!-- AuthInterceptorService&#45;&gt;AppModule -->
<g id="edge10" class="edge">
<title>AuthInterceptorService&#45;&gt;AppModule</title>
<path fill="none" stroke="#000000" d="M1101,-122.1871C1101,-137.1824 1101,-156 1101,-156 1101,-156 1239.3037,-156 1239.3037,-156"/>
<polygon fill="#000000" stroke="#000000" points="1239.3037,-159.5001 1249.3037,-156 1239.3037,-152.5001 1239.3037,-159.5001"/>
</g>
<!-- AuthenticationService -->
<g id="node12" class="node">
<title>AuthenticationService</title>
<ellipse fill="#fdb462" stroke="#000000" cx="884" cy="-104" rx="97.2683" ry="18"/>
<text text-anchor="middle" x="884" y="-99.8" font-family="Times,serif" font-size="14.00" fill="#000000">AuthenticationService</text>
</g>
<!-- AuthenticationService&#45;&gt;AppModule -->
<g id="edge11" class="edge">
<title>AuthenticationService&#45;&gt;AppModule</title>
<path fill="none" stroke="#000000" d="M884,-122.027C884,-138.3976 884,-160 884,-160 884,-160 1238.9768,-160 1238.9768,-160"/>
<polygon fill="#000000" stroke="#000000" points="1238.9768,-163.5001 1248.9768,-160 1238.9768,-156.5001 1238.9768,-163.5001"/>
</g>
<!-- AuthorService -->
<g id="node13" class="node">
<title>AuthorService</title>
<ellipse fill="#fdb462" stroke="#000000" cx="701" cy="-104" rx="67.1946" ry="18"/>
<text text-anchor="middle" x="701" y="-99.8" font-family="Times,serif" font-size="14.00" fill="#000000">AuthorService</text>
</g>
<!-- AuthorService&#45;&gt;AppModule -->
<g id="edge12" class="edge">
<title>AuthorService&#45;&gt;AppModule</title>
<path fill="none" stroke="#000000" d="M701,-122.302C701,-140.2699 701,-165 701,-165 701,-165 1239.0416,-165 1239.0416,-165"/>
<polygon fill="#000000" stroke="#000000" points="1239.0417,-168.5001 1249.0416,-165 1239.0416,-161.5001 1239.0417,-168.5001"/>
</g>
<!-- BookService -->
<g id="node14" class="node">
<title>BookService</title>
<ellipse fill="#fdb462" stroke="#000000" cx="555" cy="-104" rx="60.8352" ry="18"/>
<text text-anchor="middle" x="555" y="-99.8" font-family="Times,serif" font-size="14.00" fill="#000000">BookService</text>
</g>
<!-- BookService&#45;&gt;AppModule -->
<g id="edge13" class="edge">
<title>BookService&#45;&gt;AppModule</title>
<path fill="none" stroke="#000000" d="M555,-122.1061C555,-141.3391 555,-169 555,-169 555,-169 1239.3207,-169 1239.3207,-169"/>
<polygon fill="#000000" stroke="#000000" points="1239.3207,-172.5001 1249.3207,-169 1239.3206,-165.5001 1239.3207,-172.5001"/>
</g>
<!-- HeaderInterceptor -->
<g id="node15" class="node">
<title>HeaderInterceptor</title>
<ellipse fill="#fdb462" stroke="#000000" cx="395" cy="-104" rx="81.0378" ry="18"/>
<text text-anchor="middle" x="395" y="-99.8" font-family="Times,serif" font-size="14.00" fill="#000000">HeaderInterceptor</text>
</g>
<!-- HeaderInterceptor&#45;&gt;AppModule -->
<g id="edge14" class="edge">
<title>HeaderInterceptor&#45;&gt;AppModule</title>
<path fill="none" stroke="#000000" d="M395,-122.0267C395,-142.7672 395,-174 395,-174 395,-174 1239.2839,-174 1239.2839,-174"/>
<polygon fill="#000000" stroke="#000000" points="1239.284,-177.5001 1249.2839,-174 1239.2839,-170.5001 1239.284,-177.5001"/>
</g>
<!-- UploadService -->
<g id="node16" class="node">
<title>UploadService</title>
<ellipse fill="#fdb462" stroke="#000000" cx="227" cy="-104" rx="68.3382" ry="18"/>
<text text-anchor="middle" x="227" y="-99.8" font-family="Times,serif" font-size="14.00" fill="#000000">UploadService</text>
</g>
<!-- UploadService&#45;&gt;AppModule -->
<g id="edge15" class="edge">
<title>UploadService&#45;&gt;AppModule</title>
<path fill="none" stroke="#000000" d="M227,-122.2921C227,-144.2057 227,-178 227,-178 227,-178 1239.2899,-178 1239.2899,-178"/>
<polygon fill="#000000" stroke="#000000" points="1239.29,-181.5001 1249.2899,-178 1239.2899,-174.5001 1239.29,-181.5001"/>
</g>
<!-- UserService -->
<g id="node17" class="node">
<title>UserService</title>
<ellipse fill="#fdb462" stroke="#000000" cx="82" cy="-104" rx="58.4415" ry="18"/>
<text text-anchor="middle" x="82" y="-99.8" font-family="Times,serif" font-size="14.00" fill="#000000">UserService</text>
</g>
<!-- UserService&#45;&gt;AppModule -->
<g id="edge16" class="edge">
<title>UserService&#45;&gt;AppModule</title>
<path fill="none" stroke="#000000" d="M82,-122.3228C82,-145.6602 82,-183 82,-183 82,-183 1239.0324,-183 1239.0324,-183"/>
<polygon fill="#000000" stroke="#000000" points="1239.0324,-186.5001 1249.0324,-183 1239.0324,-179.5001 1239.0324,-186.5001"/>
</g>
</g>
</svg>
